<?xml version="1.0" standalone="no"?>
<!DOCTYPE svg PUBLIC "-//W3C//DTD SVG 20010904//EN"
 "http://www.w3.org/TR/2001/REC-SVG-20010904/DTD/svg10.dtd">
<svg version="1.0" xmlns="http://www.w3.org/2000/svg"
 width="274.000000pt" height="266.000000pt" viewBox="0 0 274.000000 266.000000"
 preserveAspectRatio="xMidYMid meet">

<g transform="translate(0.000000,266.000000) scale(0.100000,-0.100000)"
fill="#000000" stroke="none">
<path d="M1714 2570 c-11 -4 -35 -37 -53 -74 -138 -281 -534 -742 -796 -929
-108 -76 -215 -120 -215 -88 0 26 120 301 213 489 111 224 149 320 151 384 1
58 -45 87 -87 56 -13 -10 -18 -31 -20 -88 -3 -59 -12 -95 -42 -170 -62 -156
-322 -680 -337 -680 -7 0 -49 12 -93 26 -87 28 -121 25 -134 -9 -6 -16 -2 -33
17 -65 23 -40 24 -50 19 -135 -7 -135 -93 -389 -198 -582 -53 -98 -59 -125
-31 -125 12 0 26 20 45 64 25 56 150 285 346 631 35 61 60 99 57 85 -4 -14
-14 -72 -23 -129 -28 -176 1 -308 83 -380 48 -42 73 -51 148 -51 161 0 315 88
555 316 139 132 361 372 361 391 0 26 -18 11 -109 -92 -121 -136 -347 -356
-436 -423 -138 -104 -299 -163 -390 -142 -69 16 -123 73 -147 154 -25 85 -1
342 37 401 7 11 37 28 67 38 173 54 450 289 699 593 199 243 379 492 379 525
0 21 -28 25 -66 9z m-1284 -1114 c41 -13 76 -29 78 -34 3 -11 -177 -376 -184
-370 -2 2 5 32 16 65 42 136 48 261 15 346 -9 21 -15 21 75 -7z"/>
<path d="M2136 2149 c-70 -55 -554 -865 -958 -1604 -199 -364 -212 -390 -204
-410 7 -18 7 -18 25 1 10 10 71 114 134 230 144 263 217 386 324 542 202 298
448 567 651 712 176 125 231 113 186 -41 -21 -71 -56 -139 -86 -166 -12 -11
-54 -38 -93 -58 -101 -53 -281 -174 -343 -230 -42 -38 -52 -53 -50 -74 3 -24
6 -26 53 -26 100 1 307 128 418 258 131 153 132 154 241 195 55 22 126 47 156
57 50 16 86 35 66 35 -18 0 -181 -53 -248 -81 -39 -16 -74 -29 -78 -29 -4 0 3
27 16 60 45 110 48 198 7 228 -25 19 -92 10 -155 -22 -130 -64 -346 -265 -523
-486 -55 -69 -113 -141 -128 -160 l-28 -35 19 35 c46 82 224 379 330 549 139
226 214 337 281 421 55 68 62 93 32 109 -14 8 -25 6 -45 -10z m-3 -847 c-71
-86 -179 -180 -242 -212 -100 -50 -165 -52 -119 -3 52 56 371 272 401 273 5 0
-13 -26 -40 -58z"/>
</g>
</svg>
