<?xml version="1.0" standalone="no"?>
<!DOCTYPE svg PUBLIC "-//W3C//DTD SVG 20010904//EN"
 "http://www.w3.org/TR/2001/REC-SVG-20010904/DTD/svg10.dtd">
<svg version="1.0" xmlns="http://www.w3.org/2000/svg"
 width="638.000000pt" height="628.000000pt" viewBox="0 0 638.000000 628.000000"
 preserveAspectRatio="xMidYMid meet">

<g transform="translate(0.000000,628.000000) scale(0.100000,-0.100000)"
fill="#000000" stroke="none">
<path d="M3192 4895 c-8 -398 -6 -695 3 -695 6 0 9 92 7 261 -3 235 -1 263 14
280 16 17 16 19 1 19 -14 0 -17 18 -20 138 l-3 137 -2 -140z"/>
<path d="M3288 4753 c28 -2 76 -2 105 0 28 2 5 3 -53 3 -58 0 -81 -1 -52 -3z"/>
<path d="M3093 4733 c9 -2 25 -2 35 0 9 3 1 5 -18 5 -19 0 -27 -2 -17 -5z"/>
<path d="M3513 4733 c9 -2 25 -2 35 0 9 3 1 5 -18 5 -19 0 -27 -2 -17 -5z"/>
<path d="M3013 4713 c9 -2 23 -2 30 0 6 3 -1 5 -18 5 -16 0 -22 -2 -12 -5z"/>
<path d="M3603 4713 c9 -2 23 -2 30 0 6 3 -1 5 -18 5 -16 0 -22 -2 -12 -5z"/>
<path d="M2948 4693 c6 -2 18 -2 25 0 6 3 1 5 -13 5 -14 0 -19 -2 -12 -5z"/>
<path d="M3668 4693 c6 -2 18 -2 25 0 6 3 1 5 -13 5 -14 0 -19 -2 -12 -5z"/>
<path d="M2888 4673 c6 -2 18 -2 25 0 6 3 1 5 -13 5 -14 0 -19 -2 -12 -5z"/>
<path d="M3728 4673 c6 -2 18 -2 25 0 6 3 1 5 -13 5 -14 0 -19 -2 -12 -5z"/>
<path d="M2848 4653 c7 -3 16 -2 19 1 4 3 -2 6 -13 5 -11 0 -14 -3 -6 -6z"/>
<path d="M3778 4653 c7 -3 16 -2 19 1 4 3 -2 6 -13 5 -11 0 -14 -3 -6 -6z"/>
<path d="M2808 4633 c7 -3 16 -2 19 1 4 3 -2 6 -13 5 -11 0 -14 -3 -6 -6z"/>
<path d="M3818 4633 c7 -3 16 -2 19 1 4 3 -2 6 -13 5 -11 0 -14 -3 -6 -6z"/>
<path d="M2740 4600 c-9 -6 -10 -10 -3 -10 6 0 15 5 18 10 8 12 4 12 -15 0z"/>
<path d="M3887 4599 c7 -7 15 -10 18 -7 3 3 -2 9 -12 12 -14 6 -15 5 -6 -5z"/>
<path d="M2705 4580 c-3 -5 -1 -10 4 -10 6 0 11 5 11 10 0 6 -2 10 -4 10 -3 0
-8 -4 -11 -10z"/>
<path d="M3920 4580 c0 -5 5 -10 11 -10 5 0 7 5 4 10 -3 6 -8 10 -11 10 -2 0
-4 -4 -4 -10z"/>
<path d="M2650 4545 c-19 -14 -30 -25 -25 -25 6 0 24 11 40 25 39 31 30 31
-15 0z"/>
<path d="M3962 4554 c10 -10 20 -16 22 -13 3 3 -5 11 -17 18 -21 13 -21 12 -5
-5z"/>
<path d="M4005 4520 c3 -5 8 -10 11 -10 2 0 4 5 4 10 0 6 -5 10 -11 10 -5 0
-7 -4 -4 -10z"/>
<path d="M2529 4447 c-68 -66 -100 -108 -40 -52 94 87 102 95 93 95 -5 0 -29
-19 -53 -43z"/>
<path d="M4073 4468 c89 -85 128 -119 107 -93 -35 41 -113 115 -123 115 -4 0
3 -10 16 -22z"/>
<path d="M2391 4294 c-12 -14 -21 -29 -19 -34 2 -5 13 6 26 25 26 41 24 45 -7
9z"/>
<path d="M2331 4204 c0 -11 3 -14 6 -6 3 7 2 16 -1 19 -3 4 -6 -2 -5 -13z"/>
<path d="M4301 4204 c0 -11 3 -14 6 -6 3 7 2 16 -1 19 -3 4 -6 -2 -5 -13z"/>
<path d="M3123 4193 c9 -2 25 -2 35 0 9 3 1 5 -18 5 -19 0 -27 -2 -17 -5z"/>
<path d="M3243 4193 c9 -2 25 -2 35 0 9 3 1 5 -18 5 -19 0 -27 -2 -17 -5z"/>
<path d="M3340 4160 c0 -5 5 -10 11 -10 5 0 7 5 4 10 -3 6 -8 10 -11 10 -2 0
-4 -4 -4 -10z"/>
<path d="M2291 4134 c0 -11 3 -14 6 -6 3 7 2 16 -1 19 -3 4 -6 -2 -5 -13z"/>
<path d="M3386 4128 c10 -14 21 -24 23 -22 3 3 -6 15 -18 27 l-24 22 19 -27z"/>
<path d="M4341 4134 c0 -11 3 -14 6 -6 3 7 2 16 -1 19 -3 4 -6 -2 -5 -13z"/>
<path d="M2271 4094 c0 -11 3 -14 6 -6 3 7 2 16 -1 19 -3 4 -6 -2 -5 -13z"/>
<path d="M4361 4094 c0 -11 3 -14 6 -6 3 7 2 16 -1 19 -3 4 -6 -2 -5 -13z"/>
<path d="M3421 4084 c0 -11 3 -14 6 -6 3 7 2 16 -1 19 -3 4 -6 -2 -5 -13z"/>
<path d="M2961 4074 c0 -11 3 -14 6 -6 3 7 2 16 -1 19 -3 4 -6 -2 -5 -13z"/>
<path d="M2251 4054 c0 -11 3 -14 6 -6 3 7 2 16 -1 19 -3 4 -6 -2 -5 -13z"/>
<path d="M3442 4045 c0 -16 2 -22 5 -12 2 9 2 23 0 30 -3 6 -5 -1 -5 -18z"/>
<path d="M4381 4054 c0 -11 3 -14 6 -6 3 7 2 16 -1 19 -3 4 -6 -2 -5 -13z"/>
<path d="M2940 4035 c0 -8 4 -15 10 -15 5 0 7 7 4 15 -4 8 -8 15 -10 15 -2 0
-4 -7 -4 -15z"/>
<path d="M2691 4024 c0 -11 3 -14 6 -6 3 7 2 16 -1 19 -3 4 -6 -2 -5 -13z"/>
<path d="M4401 4004 c0 -11 3 -14 6 -6 3 7 2 16 -1 19 -3 4 -6 -2 -5 -13z"/>
<path d="M3083 4003 c64 -2 170 -2 235 0 64 1 11 3 -118 3 -129 0 -182 -2
-117 -3z"/>
<path d="M4410 3973 c0 -4 5 -15 10 -23 8 -13 10 -13 10 2 0 9 -4 20 -10 23
-5 3 -10 3 -10 -2z"/>
<path d="M2215 3959 c-4 -6 -5 -12 -2 -15 2 -3 7 2 10 11 7 17 1 20 -8 4z"/>
<path d="M2714 3860 c0 -63 1 -89 3 -57 2 31 2 83 0 115 -2 31 -3 5 -3 -58z"/>
<path d="M2847 3874 c-26 -35 -17 -38 11 -3 13 16 20 29 15 29 -4 0 -16 -12
-26 -26z"/>
<path d="M2580 3874 c0 -5 7 -18 15 -28 8 -11 15 -16 15 -10 0 5 -7 18 -15 28
-8 11 -15 16 -15 10z"/>
<path d="M2182 3815 c0 -16 2 -22 5 -12 2 9 2 23 0 30 -3 6 -5 -1 -5 -18z"/>
<path d="M2802 3820 c-17 -27 -15 -35 4 -16 8 9 14 21 12 26 -2 6 -9 1 -16
-10z"/>
<path d="M4452 3815 c0 -16 2 -22 5 -12 2 9 2 23 0 30 -3 6 -5 -1 -5 -18z"/>
<path d="M2615 3810 c3 -5 8 -10 11 -10 2 0 4 5 4 10 0 6 -5 10 -11 10 -5 0
-7 -4 -4 -10z"/>
<path d="M2771 3764 c0 -11 3 -14 6 -6 3 7 2 16 -1 19 -3 4 -6 -2 -5 -13z"/>
<path d="M2751 3734 c0 -11 3 -14 6 -6 3 7 2 16 -1 19 -3 4 -6 -2 -5 -13z"/>
<path d="M2163 3670 c0 -41 2 -58 4 -37 2 20 2 54 0 75 -2 20 -4 3 -4 -38z"/>
<path d="M2650 3731 c0 -6 4 -13 10 -16 6 -3 7 1 4 9 -7 18 -14 21 -14 7z"/>
<path d="M2848 3733 c6 -2 18 -2 25 0 6 3 1 5 -13 5 -14 0 -19 -2 -12 -5z"/>
<path d="M2795 3709 c-11 -16 -1 -19 13 -3 7 8 8 14 3 14 -5 0 -13 -5 -16 -11z"/>
<path d="M4474 3585 c0 -77 2 -107 3 -67 2 40 2 103 0 140 -2 37 -3 4 -3 -73z"/>
<path d="M2730 3701 c0 -5 -13 -14 -29 -19 -24 -9 -28 -14 -23 -38 3 -19 1
-25 -7 -20 -7 5 -11 0 -11 -13 0 -15 -8 -21 -32 -24 -18 -2 11 -5 64 -5 54 -1
99 -6 101 -12 3 -6 4 -5 3 2 -1 7 -17 14 -34 16 -32 3 -61 35 -43 46 5 4 11 2
13 -4 1 -5 3 10 3 35 0 25 -1 45 -2 45 -2 0 -3 -4 -3 -9z"/>
<path d="M2600 3686 c0 -2 8 -10 18 -17 15 -13 16 -12 3 4 -13 16 -21 21 -21
13z"/>
<path d="M3232 3654 c-12 -8 -21 -23 -21 -32 1 -15 2 -15 6 1 2 9 8 17 12 17
4 0 16 7 27 15 26 19 4 19 -24 -1z"/>
<path d="M3976 3645 c14 -14 28 -25 31 -25 4 0 -4 11 -17 25 -13 14 -27 25
-31 25 -5 0 3 -11 17 -25z"/>
<path d="M2635 3640 c3 -5 8 -10 11 -10 2 0 4 5 4 10 0 6 -5 10 -11 10 -5 0
-7 -4 -4 -10z"/>
<path d="M4012 3553 c-1 -34 -5 -68 -8 -77 -4 -12 0 -16 16 -16 17 0 20 3 12
13 -6 7 -13 42 -15 77 l-3 65 -2 -62z"/>
<path d="M3192 3548 c-1 -31 -5 -63 -8 -72 -4 -12 0 -16 15 -16 12 0 21 5 21
10 0 6 -4 10 -10 10 -5 0 -11 28 -13 63 l-3 62 -2 -57z"/>
<path d="M2583 3535 c0 -22 2 -30 4 -17 2 12 2 30 0 40 -3 9 -5 -1 -4 -23z"/>
<path d="M2793 3445 c0 -33 2 -45 4 -27 2 18 2 45 0 60 -2 15 -4 0 -4 -33z"/>
<path d="M3105 3440 c-26 -29 -14 -33 14 -4 13 13 19 24 14 24 -6 0 -18 -9
-28 -20z"/>
<path d="M3295 3440 c10 -11 20 -18 23 -16 5 6 -23 36 -34 36 -4 0 1 -9 11
-20z"/>
<path d="M3920 3449 c0 -5 5 -7 10 -4 6 3 10 8 10 11 0 2 -4 4 -10 4 -5 0 -10
-5 -10 -11z"/>
<path d="M4085 3450 c3 -5 8 -10 11 -10 2 0 4 5 4 10 0 6 -5 10 -11 10 -5 0
-7 -4 -4 -10z"/>
<path d="M3901 3424 c0 -11 3 -14 6 -6 3 7 2 16 -1 19 -3 4 -6 -2 -5 -13z"/>
<path d="M4111 3424 c0 -11 3 -14 6 -6 3 7 2 16 -1 19 -3 4 -6 -2 -5 -13z"/>
<path d="M2599 3390 l-4 -45 -77 -3 c-43 -2 -78 -6 -78 -10 0 -4 113 -6 251
-4 l251 3 -4 -46 c-2 -25 0 -45 4 -45 5 0 8 23 8 50 l0 50 -77 1 c-43 1 -118
2 -168 3 l-90 1 -6 45 -5 45 -5 -45z"/>
<path d="M3882 3370 c0 -14 2 -19 5 -12 2 6 2 18 0 25 -3 6 -5 1 -5 -13z"/>
<path d="M4134 3225 c0 -93 2 -133 3 -88 2 45 2 122 0 170 -1 48 -3 12 -3 -82z"/>
<path d="M4452 3370 c0 -14 2 -19 5 -12 2 6 2 18 0 25 -3 6 -5 1 -5 -13z"/>
<path d="M3488 3333 c67 -2 177 -2 245 0 67 1 12 3 -123 3 -135 0 -190 -2
-122 -3z"/>
<path d="M3324 3316 c-3 -8 -4 -24 -2 -35 3 -19 5 -18 20 8 14 25 14 30 2 35
-8 3 -17 -1 -20 -8z"/>
<path d="M3866 3322 c-2 -4 -1 -14 5 -22 5 -8 9 -36 9 -62 l0 -48 -270 0
c-173 0 -270 4 -270 10 0 6 -5 10 -11 10 -8 0 -8 -5 1 -15 11 -13 52 -15 284
-13 l271 3 6 60 c3 33 4 66 1 73 -5 14 -18 16 -26 4z"/>
<path d="M4431 3284 c0 -11 3 -14 6 -6 3 7 2 16 -1 19 -3 4 -6 -2 -5 -13z"/>
<path d="M2440 3261 c0 -6 4 -13 10 -16 6 -3 7 1 4 9 -7 18 -14 21 -14 7z"/>
<path d="M2490 3246 c0 -7 141 -141 153 -145 6 -2 -17 23 -51 57 -34 33 -62
68 -62 76 0 9 -9 16 -20 16 -11 0 -20 -2 -20 -4z"/>
<path d="M2855 3239 c-4 -6 -5 -12 -2 -15 7 -7 37 7 37 17 0 13 -27 11 -35 -2z"/>
<path d="M4415 3229 c-4 -6 -5 -12 -2 -15 2 -3 7 2 10 11 7 17 1 20 -8 4z"/>
<path d="M2765 3135 c-35 -36 -71 -65 -80 -65 -8 0 -15 -7 -15 -15 0 -8 9 -15
19 -15 11 0 22 -6 25 -12 3 -7 3 -2 0 11 -5 19 6 35 62 92 38 38 65 69 61 69
-3 0 -36 -29 -72 -65z"/>
<path d="M4381 3134 c0 -11 3 -14 6 -6 3 7 2 16 -1 19 -3 4 -6 -2 -5 -13z"/>
<path d="M4341 3054 c0 -11 3 -14 6 -6 3 7 2 16 -1 19 -3 4 -6 -2 -5 -13z"/>
<path d="M3091 3034 c-1 -17 36 -47 51 -41 9 4 8 6 -3 6 -9 1 -24 11 -32 24
-9 12 -16 17 -16 11z"/>
<path d="M4111 3024 c0 -11 3 -14 6 -6 3 7 2 16 -1 19 -3 4 -6 -2 -5 -13z"/>
<path d="M4321 3014 c0 -11 3 -14 6 -6 3 7 2 16 -1 19 -3 4 -6 -2 -5 -13z"/>
<path d="M2730 3012 c0 -10 118 -127 123 -121 2 2 -25 32 -60 67 -34 34 -63
59 -63 54z"/>
<path d="M2571 2940 c-40 -38 -69 -70 -64 -70 5 0 40 32 78 70 38 39 67 70 64
70 -3 0 -38 -31 -78 -70z"/>
<path d="M4080 3000 c-8 -5 -12 -11 -9 -14 2 -3 11 -1 19 4 8 5 12 11 9 14 -2
3 -11 1 -19 -4z"/>
<path d="M4301 2984 c0 -11 3 -14 6 -6 3 7 2 16 -1 19 -3 4 -6 -2 -5 -13z"/>
<path d="M3204 2974 c3 -9 6 -37 7 -62 1 -57 6 -46 12 26 3 41 1 52 -11 52 -9
0 -12 -6 -8 -16z"/>
<path d="M3397 2970 c3 -11 7 -20 9 -20 2 0 8 9 14 20 9 17 8 20 -9 20 -14 0
-18 -5 -14 -20z"/>
<path d="M3792 2978 c6 -18 28 -21 28 -4 0 9 -7 16 -16 16 -9 0 -14 -5 -12
-12z"/>
<path d="M3990 2928 c0 -34 2 -59 4 -57 8 10 14 119 5 119 -5 0 -9 -28 -9 -62z"/>
<path d="M3820 2946 c0 -4 7 -14 15 -22 8 -9 15 -11 15 -6 0 5 -7 15 -15 22
-8 7 -15 9 -15 6z"/>
<path d="M4261 2924 c0 -11 3 -14 6 -6 3 7 2 16 -1 19 -3 4 -6 -2 -5 -13z"/>
<path d="M3352 2899 c-19 -30 -11 -32 11 -3 10 13 14 24 10 24 -5 0 -14 -9
-21 -21z"/>
<path d="M3860 2891 c0 -10 19 -25 25 -20 1 2 -3 10 -11 17 -8 7 -14 8 -14 3z"/>
<path d="M3230 2858 c0 -4 24 -7 53 -7 54 1 49 5 -15 11 -21 2 -38 0 -38 -4z"/>
<path d="M3913 2853 c15 -2 39 -2 55 0 15 2 2 4 -28 4 -30 0 -43 -2 -27 -4z"/>
<path d="M4186 2832 l-19 -27 26 24 c28 26 32 31 20 31 -5 0 -17 -13 -27 -28z"/>
<path d="M4077 2725 c-27 -25 -45 -45 -40 -45 4 0 30 20 57 45 26 25 44 45 40
45 -5 0 -31 -21 -57 -45z"/>
<path d="M4008 2663 c7 -3 16 -2 19 1 4 3 -2 6 -13 5 -11 0 -14 -3 -6 -6z"/>
<path d="M3890 2590 c-13 -8 -12 -10 3 -10 9 0 17 5 17 10 0 12 -1 12 -20 0z"/>
<path d="M3855 2570 c-3 -5 -1 -10 4 -10 6 0 11 5 11 10 0 6 -2 10 -4 10 -3 0
-8 -4 -11 -10z"/>
<path d="M3820 2549 c0 -5 5 -7 10 -4 6 3 10 8 10 11 0 2 -4 4 -10 4 -5 0 -10
-5 -10 -11z"/>
<path d="M3738 2513 c7 -3 16 -2 19 1 4 3 -2 6 -13 5 -11 0 -14 -3 -6 -6z"/>
<path d="M3678 2493 c6 -2 18 -2 25 0 6 3 1 5 -13 5 -14 0 -19 -2 -12 -5z"/>
<path d="M3613 2473 c9 -2 23 -2 30 0 6 3 -1 5 -18 5 -16 0 -22 -2 -12 -5z"/>
<path d="M3518 2453 c12 -2 32 -2 45 0 12 2 2 4 -23 4 -25 0 -35 -2 -22 -4z"/>
<path d="M3357 2433 c18 -2 50 -2 70 0 21 2 7 4 -32 4 -38 0 -55 -2 -38 -4z"/>
<path d="M1546 1963 c-10 -65 -7 -523 4 -523 6 0 10 93 10 260 0 154 4 260 9
260 5 0 20 -15 32 -32 13 -18 26 -35 29 -38 3 -3 50 -68 105 -145 55 -77 102
-142 105 -145 3 -3 17 -21 30 -40 55 -81 95 -130 107 -130 10 0 13 56 11 278
l-3 277 -2 -257 c-3 -200 -6 -258 -16 -258 -7 0 -44 43 -82 97 -259 358 -315
433 -325 433 -4 0 -10 -17 -14 -37z"/>
<path d="M2176 1989 c4 -7 36 -10 86 -8 61 3 81 0 88 -11 6 -8 10 -131 10
-272 0 -163 4 -258 10 -258 6 0 11 102 12 272 l3 273 80 -3 c44 -1 87 2 95 8
10 7 -48 10 -188 10 -143 0 -201 -3 -196 -11z"/>
<path d="M2747 1993 c-4 -3 -7 -132 -7 -285 l0 -278 180 0 c113 0 180 4 180
10 0 6 -63 10 -170 10 l-170 0 0 119 c0 66 3 126 6 135 5 13 29 16 148 18
l141 2 -145 6 -145 5 -3 105 c-4 159 -19 146 159 142 99 -2 155 0 162 7 8 8
-38 11 -159 11 -94 0 -174 -3 -177 -7z"/>
<path d="M3300 1720 c0 -180 4 -280 10 -280 6 0 10 37 10 90 l0 90 114 0 115
0 22 -32 c13 -18 26 -35 29 -38 4 -3 20 -26 37 -51 33 -47 63 -78 63 -63 0 5
-29 47 -64 93 -63 83 -72 111 -36 111 16 0 54 32 89 75 10 12 15 44 15 95 1
69 -2 80 -27 113 -43 57 -111 77 -257 77 l-120 0 0 -280z m324 227 c20 -16 43
-41 51 -57 19 -36 19 -122 1 -158 -37 -71 -92 -92 -243 -92 l-113 0 0 171 0
171 134 -4 c127 -3 135 -5 170 -31z"/>
<path d="M4346 1975 c-242 -99 -247 -413 -9 -525 62 -29 176 -28 235 3 132 68
200 204 164 327 -22 73 -56 122 -111 160 -94 65 -180 76 -279 35z m226 -17
c36 -20 123 -110 136 -141 7 -15 12 -37 12 -48 0 -10 6 -28 12 -39 10 -15 10
-22 0 -32 -6 -6 -12 -24 -12 -40 0 -59 -66 -145 -142 -184 -57 -29 -173 -33
-232 -9 -52 22 -120 88 -145 140 -29 61 -29 159 0 220 32 67 108 129 184 149
33 8 163 -3 187 -16z"/>
<path d="M4957 1993 c-12 -11 -8 -565 3 -558 6 3 10 46 10 96 l0 89 120 0
c114 0 120 -1 131 -22 7 -13 24 -39 39 -58 15 -19 39 -52 54 -73 16 -21 31
-36 34 -33 5 6 -67 114 -100 150 -26 29 -22 43 18 62 99 47 128 203 53 288
-44 50 -101 66 -239 66 -64 0 -120 -3 -123 -7z m199 -17 c102 -5 133 -21 173
-87 24 -39 28 -107 9 -142 -22 -38 -71 -87 -88 -87 -9 0 -21 -5 -26 -10 -7 -7
-57 -10 -130 -8 l-119 3 -3 159 c-1 99 1 163 8 171 6 8 27 11 53 9 23 -2 78
-5 123 -8z"/>
<path d="M1284 1710 c0 -157 2 -221 3 -142 2 78 2 206 0 285 -1 78 -3 14 -3
-143z"/>
<path d="M3944 1715 c0 -154 2 -216 3 -137 2 79 2 205 0 280 -1 75 -3 11 -3
-143z"/>
</g>
</svg>
